<svg width="30" height="30" viewBox="0 0 30 30" fill="none" xmlns="http://www.w3.org/2000/svg">
<path d="M3 30C2.175 30 1.46875 29.7062 0.88125 29.1187C0.29375 28.5312 0 27.825 0 27V9C0 8.175 0.29375 7.46875 0.88125 6.88125C1.46875 6.29375 2.175 6 3 6H9V3C9 2.175 9.29375 1.46875 9.88125 0.88125C10.4688 0.29375 11.175 0 12 0H18C18.825 0 19.5312 0.29375 20.1187 0.88125C20.7062 1.46875 21 2.175 21 3V6H27C27.825 6 28.5312 6.29375 29.1187 6.88125C29.7062 7.46875 30 8.175 30 9V27C30 27.825 29.7062 28.5312 29.1187 29.1187C28.5312 29.7062 27.825 30 27 30H3V30M3 27H27V27V27V9V9V9H3V9V9V27V27V27V27M12 6H18V3V3V3H12V3V3V6V6M3 27V27V27V9V9V9V9V9V9V27V27V27V27V27M13.5 19.5V24H16.5V19.5H21V16.5H16.5V12H13.5V16.5H9V19.5H13.5V19.5" fill="white" fill-opacity="0.8"/>
</svg>
