<svg width="30" height="29" viewBox="0 0 30 29" fill="none" xmlns="http://www.w3.org/2000/svg">
<path d="M21 13.5C21.425 13.5 21.7813 13.3563 22.0688 13.0688C22.3563 12.7813 22.5 12.425 22.5 12C22.5 11.575 22.3563 11.2187 22.0688 10.9312C21.7813 10.6437 21.425 10.5 21 10.5C20.575 10.5 20.2187 10.6437 19.9312 10.9312C19.6437 11.2187 19.5 11.575 19.5 12C19.5 12.425 19.6437 12.7813 19.9312 13.0688C20.2187 13.3563 20.575 13.5 21 13.5V13.5M9 10.5H16.5V7.5H9V10.5V10.5M3.75 28.5C2.9 25.65 2.0625 22.8063 1.2375 19.9688C0.4125 17.1312 0 14.225 0 11.25C0 8.95 0.8 7 2.4 5.4C4 3.8 5.95 3 8.25 3H15.75C16.475 2.05 17.3562 1.3125 18.3937 0.7875C19.4312 0.2625 20.55 0 21.75 0C22.375 0 22.9062 0.21875 23.3438 0.65625C23.7812 1.09375 24 1.625 24 2.25C24 2.4 23.9813 2.55 23.9438 2.7C23.9063 2.85 23.8625 2.9875 23.8125 3.1125C23.7125 3.3875 23.6187 3.66875 23.5312 3.95625C23.4438 4.24375 23.375 4.5375 23.325 4.8375L26.7375 8.25H30V18.7125L25.7625 20.1L23.25 28.5H15V25.5H12V28.5H3.75V28.5M6 25.5H9V22.5H18V25.5H21L23.325 17.775L27 16.5375V11.25H25.5L20.25 6C20.25 5.5 20.2812 5.01875 20.3438 4.55625C20.4062 4.09375 20.5 3.625 20.625 3.15C19.9 3.35 19.2625 3.69375 18.7125 4.18125C18.1625 4.66875 17.7625 5.275 17.5125 6H8.25C6.8 6 5.5625 6.5125 4.5375 7.5375C3.5125 8.5625 3 9.8 3 11.25C3 13.7 3.3375 16.0937 4.0125 18.4312C4.6875 20.7687 5.35 23.125 6 25.5V25.5M15 14.325V14.325V14.325V14.325V14.325V14.325V14.325V14.325V14.325V14.325V14.325V14.325V14.325V14.325V14.325V14.325V14.325V14.325V14.325V14.325V14.325" fill="white" fill-opacity="0.8"/>
</svg>
