<svg width="80" height="80" viewBox="0 0 80 80" fill="none" xmlns="http://www.w3.org/2000/svg">
<rect width="80" height="80" rx="40" fill="white" fill-opacity="0.05"/>
<rect x="0.5" y="0.5" width="79" height="79" rx="39.5" stroke="white" stroke-opacity="0.1"/>
<path d="M37.8906 24.3906C38.5 23.7812 39.2031 23.4766 40 23.4766C40.7969 23.4766 41.5 23.7812 42.1094 24.3906C42.7188 25 43.0234 25.7031 43.0234 26.5C43.0234 27.2969 42.7188 28 42.1094 28.6094C41.5 29.2188 40.7969 29.5234 40 29.5234C39.2031 29.5234 38.5 29.2188 37.8906 28.6094C37.2812 28 36.9766 27.2969 36.9766 26.5C36.9766 25.7031 37.2812 25 37.8906 24.3906ZM37.8906 33.3906C38.5 32.7812 39.2031 32.4766 40 32.4766C40.7969 32.4766 41.5 32.7812 42.1094 33.3906C42.7188 34 43.0234 34.7031 43.0234 35.5C43.0234 36.2969 42.7188 37 42.1094 37.6094C41.5 38.2188 40.7969 38.5234 40 38.5234C39.2031 38.5234 38.5 38.2188 37.8906 37.6094C37.2812 37 36.9766 36.2969 36.9766 35.5C36.9766 34.7031 37.2812 34 37.8906 33.3906ZM46.8906 33.3906C47.5 32.7812 48.2031 32.4766 49 32.4766C49.7969 32.4766 50.5 32.7812 51.1094 33.3906C51.7188 34 52.0234 34.7031 52.0234 35.5C52.0234 36.2969 51.7188 37 51.1094 37.6094C50.5 38.2188 49.7969 38.5234 49 38.5234C48.2031 38.5234 47.5 38.2188 46.8906 37.6094C46.2812 37 45.9766 36.2969 45.9766 35.5C45.9766 34.7031 46.2812 34 46.8906 33.3906ZM46.8906 42.3906C47.5 41.7812 48.2031 41.4766 49 41.4766C49.7969 41.4766 50.5 41.7812 51.1094 42.3906C51.7188 43 52.0234 43.7031 52.0234 44.5C52.0234 45.2969 51.7188 46 51.1094 46.6094C50.5 47.2188 49.7969 47.5234 49 47.5234C48.2031 47.5234 47.5 47.2188 46.8906 46.6094C46.2812 46 45.9766 45.2969 45.9766 44.5C45.9766 43.7031 46.2812 43 46.8906 42.3906ZM37.8906 42.3906C38.5 41.7812 39.2031 41.4766 40 41.4766C40.7969 41.4766 41.5 41.7812 42.1094 42.3906C42.7188 43 43.0234 43.7031 43.0234 44.5C43.0234 45.2969 42.7188 46 42.1094 46.6094C41.5 47.2188 40.7969 47.5234 40 47.5234C39.2031 47.5234 38.5 47.2188 37.8906 46.6094C37.2812 46 36.9766 45.2969 36.9766 44.5C36.9766 43.7031 37.2812 43 37.8906 42.3906ZM51.1094 28.6094C50.5 29.2188 49.7969 29.5234 49 29.5234C48.2031 29.5234 47.5 29.2188 46.8906 28.6094C46.2812 28 45.9766 27.2969 45.9766 26.5C45.9766 25.7031 46.2812 25 46.8906 24.3906C47.5 23.7812 48.2031 23.4766 49 23.4766C49.7969 23.4766 50.5 23.7812 51.1094 24.3906C51.7188 25 52.0234 25.7031 52.0234 26.5C52.0234 27.2969 51.7188 28 51.1094 28.6094ZM28.8906 42.3906C29.5 41.7812 30.2031 41.4766 31 41.4766C31.7969 41.4766 32.5 41.7812 33.1094 42.3906C33.7188 43 34.0234 43.7031 34.0234 44.5C34.0234 45.2969 33.7188 46 33.1094 46.6094C32.5 47.2188 31.7969 47.5234 31 47.5234C30.2031 47.5234 29.5 47.2188 28.8906 46.6094C28.2812 46 27.9766 45.2969 27.9766 44.5C27.9766 43.7031 28.2812 43 28.8906 42.3906ZM28.8906 33.3906C29.5 32.7812 30.2031 32.4766 31 32.4766C31.7969 32.4766 32.5 32.7812 33.1094 33.3906C33.7188 34 34.0234 34.7031 34.0234 35.5C34.0234 36.2969 33.7188 37 33.1094 37.6094C32.5 38.2188 31.7969 38.5234 31 38.5234C30.2031 38.5234 29.5 38.2188 28.8906 37.6094C28.2812 37 27.9766 36.2969 27.9766 35.5C27.9766 34.7031 28.2812 34 28.8906 33.3906ZM28.8906 24.3906C29.5 23.7812 30.2031 23.4766 31 23.4766C31.7969 23.4766 32.5 23.7812 33.1094 24.3906C33.7188 25 34.0234 25.7031 34.0234 26.5C34.0234 27.2969 33.7188 28 33.1094 28.6094C32.5 29.2188 31.7969 29.5234 31 29.5234C30.2031 29.5234 29.5 29.2188 28.8906 28.6094C28.2812 28 27.9766 27.2969 27.9766 26.5C27.9766 25.7031 28.2812 25 28.8906 24.3906ZM37.8906 51.3906C38.5 50.7812 39.2031 50.4766 40 50.4766C40.7969 50.4766 41.5 50.7812 42.1094 51.3906C42.7188 52 43.0234 52.7031 43.0234 53.5C43.0234 54.2969 42.7188 55 42.1094 55.6094C41.5 56.2188 40.7969 56.5234 40 56.5234C39.2031 56.5234 38.5 56.2188 37.8906 55.6094C37.2812 55 36.9766 54.2969 36.9766 53.5C36.9766 52.7031 37.2812 52 37.8906 51.3906Z" fill="white" fill-opacity="0.7"/>
</svg>
