<svg width="30" height="21" viewBox="0 0 30 21" fill="none" xmlns="http://www.w3.org/2000/svg">
<path d="M3.8025 21C2.5275 21 1.54 20.5563 0.84 19.6688C0.14 18.7813 -0.1225 17.7 0.0525 16.425L1.6275 5.175C1.8525 3.675 2.52125 2.4375 3.63375 1.4625C4.74625 0.4875 6.0525 0 7.5525 0H22.4025C23.9025 0 25.2088 0.4875 26.3213 1.4625C27.4338 2.4375 28.1025 3.675 28.3275 5.175L29.9025 16.425C30.0775 17.7 29.815 18.7813 29.115 19.6688C28.415 20.5563 27.4275 21 26.1525 21C25.6275 21 25.14 20.9062 24.69 20.7188C24.24 20.5312 23.8275 20.25 23.4525 19.875L20.0775 16.5H9.8775L6.5025 19.875C6.1275 20.25 5.715 20.5312 5.265 20.7188C4.815 20.9062 4.3275 21 3.8025 21V21M4.4025 17.775L8.6775 13.5H21.2775L25.5525 17.775C25.6025 17.825 25.8025 17.9 26.1525 18C26.4275 18 26.6463 17.9188 26.8088 17.7563C26.9713 17.5938 27.0275 17.375 26.9775 17.1L25.3275 5.55C25.2275 4.825 24.9025 4.21875 24.3525 3.73125C23.8025 3.24375 23.1525 3 22.4025 3H7.5525C6.8025 3 6.1525 3.24375 5.6025 3.73125C5.0525 4.21875 4.7275 4.825 4.6275 5.55L2.9775 17.1C2.9275 17.375 2.98375 17.5938 3.14625 17.7563C3.30875 17.9188 3.5275 18 3.8025 18C3.8525 18 4.0525 17.925 4.4025 17.775V17.775M22.4775 12C22.9025 12 23.2587 11.8563 23.5462 11.5688C23.8337 11.2813 23.9775 10.925 23.9775 10.5C23.9775 10.075 23.8337 9.71875 23.5462 9.43125C23.2587 9.14375 22.9025 9 22.4775 9C22.0525 9 21.6963 9.14375 21.4088 9.43125C21.1213 9.71875 20.9775 10.075 20.9775 10.5C20.9775 10.925 21.1213 11.2813 21.4088 11.5688C21.6963 11.8563 22.0525 12 22.4775 12V12M19.4775 7.5C19.9025 7.5 20.2587 7.35625 20.5462 7.06875C20.8337 6.78125 20.9775 6.425 20.9775 6C20.9775 5.575 20.8337 5.21875 20.5462 4.93125C20.2587 4.64375 19.9025 4.5 19.4775 4.5C19.0525 4.5 18.6963 4.64375 18.4088 4.93125C18.1213 5.21875 17.9775 5.575 17.9775 6C17.9775 6.425 18.1213 6.78125 18.4088 7.06875C18.6963 7.35625 19.0525 7.5 19.4775 7.5V7.5M8.6025 12H10.8525V9.375H13.4775V7.125H10.8525V4.5H8.6025V7.125H5.9775V9.375H8.6025V12V12M14.9775 10.5V10.5V10.5V10.5V10.5V10.5V10.5V10.5V10.5V10.5V10.5V10.5V10.5V10.5V10.5V10.5V10.5V10.5V10.5V10.5" fill="white" fill-opacity="0.8"/>
</svg>
