<svg width="20" height="28" viewBox="0 0 20 28" fill="none" xmlns="http://www.w3.org/2000/svg">
<path d="M12.4219 22.3203H12.3047C11.1068 22.0078 10.0781 21.4219 9.21875 20.5625C8.72396 20.0677 8.30078 19.3971 7.94922 18.5508C7.59766 17.7044 7.42188 16.9297 7.42188 16.2266C7.42188 15.5495 7.66927 14.9701 8.16406 14.4883C8.65885 14.0065 9.25781 13.7656 9.96094 13.7656C10.6641 13.7656 11.2695 14.0065 11.7773 14.4883C12.2852 14.9701 12.5391 15.5495 12.5391 16.2266C12.5391 16.6693 12.7018 17.0469 13.0273 17.3594C13.3529 17.6719 13.763 17.8281 14.2578 17.8281C14.7526 17.8281 15.1693 17.6719 15.5078 17.3594C15.8464 17.0469 16.0156 16.6693 16.0156 16.2266C16.0156 14.6641 15.4232 13.3229 14.2383 12.2031C13.0534 11.0833 11.6276 10.5234 9.96094 10.5234C8.76302 10.5234 7.66927 10.8294 6.67969 11.4414C5.6901 12.0534 4.94792 12.8672 4.45312 13.8828C4.14062 14.5339 3.98438 15.3151 3.98438 16.2266C3.98438 17.2682 4.16667 18.2708 4.53125 19.2344C4.60938 19.4948 4.51823 19.6641 4.25781 19.7422C3.9974 19.8203 3.82812 19.7422 3.75 19.5078C3.33333 18.4401 3.125 17.3464 3.125 16.2266C3.125 15.2109 3.32031 14.3125 3.71094 13.5312C4.25781 12.3594 5.09766 11.4219 6.23047 10.7188C7.36328 10.0156 8.60677 9.66406 9.96094 9.66406C11.862 9.66406 13.4831 10.3086 14.8242 11.5977C16.1654 12.8867 16.8359 14.4297 16.8359 16.2266C16.8359 16.9036 16.582 17.4766 16.0742 17.9453C15.5664 18.4141 14.9609 18.6484 14.2578 18.6484C13.5547 18.6484 12.9557 18.4141 12.4609 17.9453C11.9661 17.4766 11.7188 16.9036 11.7188 16.2266C11.7188 15.7839 11.5495 15.3997 11.2109 15.0742C10.8724 14.7487 10.4557 14.5859 9.96094 14.5859C9.46615 14.5859 9.05599 14.7487 8.73047 15.0742C8.40495 15.3997 8.24219 15.7839 8.24219 16.2266C8.24219 17.6849 8.76302 18.9349 9.80469 19.9766C10.5339 20.7057 11.4453 21.2135 12.5391 21.5C12.7734 21.526 12.8646 21.6953 12.8125 22.0078C12.7604 22.2161 12.6302 22.3203 12.4219 22.3203ZM10.3516 16.2266C10.3516 17.1901 10.7096 18.0234 11.4258 18.7266C12.1419 19.4297 13.0339 19.7812 14.1016 19.7812C14.1536 19.7812 14.2708 19.7682 14.4531 19.7422C14.6354 19.7161 14.7852 19.7031 14.9023 19.7031C15.0195 19.7031 15.1367 19.7227 15.2539 19.7617C15.3711 19.8008 15.4427 19.8854 15.4688 20.0156C15.5208 20.3021 15.4036 20.4714 15.1172 20.5234C14.8047 20.5755 14.4661 20.6016 14.1016 20.6016C13.0599 20.6016 12.2005 20.3542 11.5234 19.8594C10.1953 18.9479 9.53125 17.737 9.53125 16.2266C9.53125 15.9401 9.67448 15.7969 9.96094 15.7969C10.2214 15.7969 10.3516 15.9401 10.3516 16.2266ZM8.125 22.1641C8.02083 22.1641 7.92969 22.125 7.85156 22.0469C7.14844 21.3438 6.58854 20.6016 6.17188 19.8203C5.57292 18.7786 5.27344 17.5807 5.27344 16.2266C5.27344 15.0026 5.73568 13.9479 6.66016 13.0625C7.58464 12.1771 8.69792 11.7344 10 11.7344C11.3021 11.7344 12.4154 12.1771 13.3398 13.0625C14.2643 13.9479 14.7266 15.0026 14.7266 16.2266C14.7266 16.487 14.5833 16.6172 14.2969 16.6172C14.0104 16.6172 13.8672 16.487 13.8672 16.2266C13.8672 15.2109 13.4896 14.3451 12.7344 13.6289C11.9792 12.9128 11.0677 12.5547 10 12.5547C8.93229 12.5547 8.02083 12.9128 7.26562 13.6289C6.51042 14.3451 6.13281 15.2109 6.13281 16.2266C6.13281 17.4766 6.38021 18.5443 6.875 19.4297C7.21354 20.0286 7.73438 20.7057 8.4375 21.4609C8.64583 21.6432 8.64583 21.8385 8.4375 22.0469C8.35938 22.125 8.25521 22.1641 8.125 22.1641ZM2.92969 12.0859C2.64323 12.0859 2.5 11.9557 2.5 11.6953C2.5 11.6432 2.52604 11.5651 2.57812 11.4609C3.41146 10.263 4.45312 9.35156 5.70312 8.72656C7.00521 8.04948 8.4375 7.71094 10 7.71094C11.5625 7.71094 12.9948 8.04948 14.2969 8.72656C15.5729 9.35156 16.6146 10.25 17.4219 11.4219C17.474 11.526 17.5 11.6042 17.5 11.6562C17.5 11.8385 17.3958 11.9688 17.1875 12.0469C16.9792 12.125 16.8229 12.0729 16.7188 11.8906C15.9375 10.8229 15 10.0156 13.9062 9.46875C12.7083 8.86979 11.4062 8.5638 10 8.55078C8.59375 8.53776 7.29167 8.84375 6.09375 9.46875C4.92188 10.0677 3.97135 10.888 3.24219 11.9297C3.16406 12.0339 3.0599 12.0859 2.92969 12.0859ZM14.8438 7.71094C14.7396 7.71094 14.6745 7.69792 14.6484 7.67188C13.112 6.89062 11.5625 6.5 10 6.5C8.30729 6.5 6.75781 6.89062 5.35156 7.67188C5.22135 7.75 5.09115 7.75 4.96094 7.67188C4.83073 7.59375 4.76562 7.47656 4.76562 7.32031C4.76562 7.13802 4.83073 7.00781 4.96094 6.92969C6.47135 6.09635 8.15104 5.67969 10 5.67969C11.6927 5.67969 13.3724 6.09635 15.0391 6.92969C15.2734 7.0599 15.3255 7.24219 15.1953 7.47656C15.0911 7.63281 14.974 7.71094 14.8438 7.71094Z" fill="white"/>
</svg>
