<svg width="24" height="30" viewBox="0 0 24 30" fill="none" xmlns="http://www.w3.org/2000/svg">
<path d="M3 30C2.175 30 1.46875 29.7062 0.88125 29.1187C0.29375 28.5312 0 27.825 0 27V9C0 8.175 0.29375 7.46875 0.88125 6.88125C1.46875 6.29375 2.175 6 3 6H6V6C6 4.35 6.5875 2.9375 7.7625 1.7625C8.9375 0.5875 10.35 0 12 0C13.65 0 15.0625 0.5875 16.2375 1.7625C17.4125 2.9375 18 4.35 18 6V6H21C21.825 6 22.5312 6.29375 23.1187 6.88125C23.7062 7.46875 24 8.175 24 9V27C24 27.825 23.7062 28.5312 23.1187 29.1187C22.5312 29.7062 21.825 30 21 30H3V30M3 27H21V27V27V9V9V9H18V12C18 12.425 17.8563 12.7813 17.5688 13.0688C17.2813 13.3563 16.925 13.5 16.5 13.5C16.075 13.5 15.7187 13.3563 15.4312 13.0688C15.1437 12.7813 15 12.425 15 12V9H9V12C9 12.425 8.85625 12.7813 8.56875 13.0688C8.28125 13.3563 7.925 13.5 7.5 13.5C7.075 13.5 6.71875 13.3563 6.43125 13.0688C6.14375 12.7813 6 12.425 6 12V9H3V9V9V27V27V27V27M9 6H15V6C15 5.175 14.7062 4.46875 14.1187 3.88125C13.5312 3.29375 12.825 3 12 3C11.175 3 10.4688 3.29375 9.88125 3.88125C9.29375 4.46875 9 5.175 9 6V6V6M3 27V27V27V27V9V9V9V9V9V9V27V27V27V27" fill="white" fill-opacity="0.8"/>
</svg>
