<svg width="30" height="30" viewBox="0 0 30 30" fill="none" xmlns="http://www.w3.org/2000/svg">
<path d="M9 30C8.175 30 7.46875 29.7062 6.88125 29.1187C6.29375 28.5312 6 27.825 6 27C6 26.175 6.29375 25.4688 6.88125 24.8813C7.46875 24.2938 8.175 24 9 24C9.825 24 10.5312 24.2938 11.1187 24.8813C11.7062 25.4688 12 26.175 12 27C12 27.825 11.7062 28.5312 11.1187 29.1187C10.5312 29.7062 9.825 30 9 30V30M24 30C23.175 30 22.4688 29.7062 21.8813 29.1187C21.2938 28.5312 21 27.825 21 27C21 26.175 21.2938 25.4688 21.8813 24.8813C22.4688 24.2938 23.175 24 24 24C24.825 24 25.5312 24.2938 26.1187 24.8813C26.7062 25.4688 27 26.175 27 27C27 27.825 26.7062 28.5312 26.1187 29.1187C25.5312 29.7062 24.825 30 24 30V30M7.725 6L11.325 13.5H21.825V13.5V13.5L25.95 6V6V6H7.725V6M6.3 3H28.425C29 3 29.4375 3.25625 29.7375 3.76875C30.0375 4.28125 30.05 4.8 29.775 5.325L24.45 14.925C24.175 15.425 23.8063 15.8125 23.3438 16.0875C22.8812 16.3625 22.375 16.5 21.825 16.5H10.65L9 19.5V19.5V19.5H27V22.5H9C7.875 22.5 7.025 22.0062 6.45 21.0187C5.875 20.0312 5.85 19.05 6.375 18.075L8.4 14.4L3 3H0V0H4.875L6.3 3V3M11.325 13.5V13.5H21.825V13.5V13.5V13.5H11.325V13.5" fill="white" fill-opacity="0.8"/>
</svg>
