<svg width="20" height="28" viewBox="0 0 20 28" fill="none" xmlns="http://www.w3.org/2000/svg">
<path d="M12.5781 10.6797V9C12.5781 8.29688 12.3242 7.69141 11.8164 7.18359C11.3086 6.67578 10.7031 6.42188 10 6.42188C9.29688 6.42188 8.69141 6.67578 8.18359 7.18359C7.67578 7.69141 7.42188 8.29688 7.42188 9V10.6797H12.5781ZM8.82812 17.6719C9.16667 18.0104 9.55729 18.1797 10 18.1797C10.4427 18.1797 10.8333 18.0104 11.1719 17.6719C11.5104 17.3333 11.6797 16.9427 11.6797 16.5C11.6797 16.0573 11.5104 15.6667 11.1719 15.3281C10.8333 14.9896 10.4427 14.8203 10 14.8203C9.55729 14.8203 9.16667 14.9896 8.82812 15.3281C8.48958 15.6667 8.32031 16.0573 8.32031 16.5C8.32031 16.9427 8.48958 17.3333 8.82812 17.6719ZM15 10.6797C15.4427 10.6797 15.8333 10.8424 16.1719 11.168C16.5104 11.4935 16.6797 11.8776 16.6797 12.3203V20.6797C16.6797 21.1224 16.5104 21.5065 16.1719 21.832C15.8333 22.1576 15.4427 22.3203 15 22.3203H5C4.55729 22.3203 4.16667 22.1576 3.82812 21.832C3.48958 21.5065 3.32031 21.1224 3.32031 20.6797V12.3203C3.32031 11.8776 3.48958 11.4935 3.82812 11.168C4.16667 10.8424 4.55729 10.6797 5 10.6797H5.82031V9C5.82031 7.85417 6.23047 6.87109 7.05078 6.05078C7.87109 5.23047 8.85417 4.82031 10 4.82031C11.1458 4.82031 12.1289 5.23047 12.9492 6.05078C13.7695 6.87109 14.1797 7.85417 14.1797 9V10.6797H15Z" fill="white"/>
</svg>
