<svg width="80" height="80" viewBox="0 0 80 80" fill="none" xmlns="http://www.w3.org/2000/svg">
<rect width="80" height="80" rx="40" fill="#135BEC" fill-opacity="0.1"/>
<rect x="0.5" y="0.5" width="79" height="79" rx="39.5" stroke="#135BEC" stroke-opacity="0.3"/>
<path d="M31.5273 48.4727C33.8945 50.8398 36.7188 52.0234 40 52.0234C43.2812 52.0234 46.1055 50.8398 48.4727 48.4727C50.8398 46.1055 52.0234 43.2812 52.0234 40C52.0234 38.9688 51.8594 37.8438 51.5312 36.625C50.5 36.8594 49.3516 36.9766 48.0859 36.9766C45.9297 36.9766 43.668 36.3555 41.3008 35.1133C38.9336 33.8711 37.1406 32.3828 35.9219 30.6484C34.375 34.3984 31.75 37.0938 28.0469 38.7344C28 39.0156 27.9766 39.4375 27.9766 40C27.9766 43.2812 29.1602 46.1055 31.5273 48.4727ZM29.418 29.418C32.3477 26.4883 35.875 25.0234 40 25.0234C44.125 25.0234 47.6523 26.4883 50.582 29.418C53.5117 32.3477 54.9766 35.875 54.9766 40C54.9766 44.125 53.5117 47.6523 50.582 50.582C47.6523 53.5117 44.125 54.9766 40 54.9766C35.875 54.9766 32.3477 53.5117 29.418 50.582C26.4883 47.6523 25.0234 44.125 25.0234 40C25.0234 35.875 26.4883 32.3477 29.418 29.418ZM43.1641 40.1758C43.5391 39.8242 43.9844 39.6484 44.5 39.6484C45.0156 39.6484 45.4609 39.8242 45.8359 40.1758C46.2109 40.5273 46.3984 40.9609 46.3984 41.4766C46.3984 41.9922 46.2109 42.4375 45.8359 42.8125C45.4609 43.1875 45.0156 43.375 44.5 43.375C43.9844 43.375 43.5391 43.1875 43.1641 42.8125C42.7891 42.4375 42.6016 41.9922 42.6016 41.4766C42.6016 40.9609 42.7891 40.5273 43.1641 40.1758ZM34.1641 40.1758C34.5391 39.8242 34.9844 39.6484 35.5 39.6484C36.0156 39.6484 36.4609 39.8242 36.8359 40.1758C37.2109 40.5273 37.3984 40.9609 37.3984 41.4766C37.3984 41.9922 37.2109 42.4375 36.8359 42.8125C36.4609 43.1875 36.0156 43.375 35.5 43.375C34.9844 43.375 34.5391 43.1875 34.1641 42.8125C33.7891 42.4375 33.6016 41.9922 33.6016 41.4766C33.6016 40.9609 33.7891 40.5273 34.1641 40.1758Z" fill="#135BEC"/>
</svg>
