<svg width="19" height="19" viewBox="0 0 19 19" fill="none" xmlns="http://www.w3.org/2000/svg">
<path d="M0.5 0.5H8.5V8.5H0.5V0.5V0.5M2.5 2.5V2.5V6.5V6.5V2.5V2.5M10.5 0.5H18.5V8.5H10.5V0.5V0.5M12.5 2.5V2.5V6.5V6.5V2.5V2.5M0.5 10.5H8.5V18.5H0.5V10.5V10.5M2.5 12.5V12.5V16.5V16.5V12.5V12.5M13.5 10.5H15.5V13.5H18.5V15.5H15.5V18.5H13.5V15.5H10.5V13.5H13.5V10.5V10.5M12.5 2.5V6.5H16.5V2.5H12.5V2.5M2.5 2.5V6.5H6.5V2.5H2.5V2.5M2.5 12.5V16.5H6.5V12.5H2.5V12.5" fill="#64748B"/>
<path d="M0.5 0.5H8.5V8.5H0.5V0.5V0.5M2.5 2.5V2.5V6.5V6.5V2.5V2.5M10.5 0.5H18.5V8.5H10.5V0.5V0.5M12.5 2.5V2.5V6.5V6.5V2.5V2.5M0.5 10.5H8.5V18.5H0.5V10.5V10.5M2.5 12.5V12.5V16.5V16.5V12.5V12.5M13.5 10.5H15.5V13.5H18.5V15.5H15.5V18.5H13.5V15.5H10.5V13.5H13.5V10.5V10.5M12.5 2.5V6.5H16.5V2.5H12.5V2.5M2.5 2.5V6.5H6.5V2.5H2.5V2.5M2.5 12.5V16.5H6.5V12.5H2.5V12.5" stroke="black" stroke-linejoin="bevel"/>
</svg>
