<svg width="20" height="20" viewBox="0 0 20 20" fill="none" xmlns="http://www.w3.org/2000/svg">
<path d="M17.2891 9.98438C17.2891 9.67188 17.2735 9.4375 17.2422 9.28125L19.1172 7.875C19.324 7.73716 19.4529 7.5438 19.504 7.29492C19.5535 7.05357 19.5183 6.82505 19.3985 6.60938L17.5235 3.375C17.3856 3.14519 17.1981 2.99285 16.961 2.91797C16.7318 2.84559 16.4974 2.85731 16.2579 2.95312L14.1016 3.84375C13.6016 3.53125 13.211 3.3125 12.9297 3.1875L12.6485 0.84375C12.6249 0.607664 12.5194 0.408445 12.3321 0.246094C12.1428 0.0820312 11.9201 0 11.6641 0H7.91412C7.65811 0 7.43546 0.0820312 7.24615 0.246094C7.05883 0.408445 6.95336 0.607664 6.92975 0.84375L6.6485 3.1875C6.36725 3.3125 5.97662 3.53125 5.47662 3.84375L3.32037 2.95312C3.08083 2.85731 2.84645 2.84559 2.61725 2.91797C2.38013 2.99285 2.19263 3.14519 2.05475 3.375L0.179749 6.60938C0.0602633 6.82445 0.025107 7.05492 0.0742798 7.30078C0.124855 7.55366 0.253762 7.76069 0.460999 7.92188L2.336 9.32812C2.30475 9.45312 2.28912 9.67188 2.28912 9.98438C2.28912 10.2969 2.30475 10.5312 2.336 10.6875L0.460999 12.0938C0.254238 12.2316 0.125332 12.4249 0.0742798 12.6738C0.0247713 12.9152 0.0599276 13.1437 0.179749 13.3594L2.05475 16.5938C2.19263 16.8236 2.38013 16.9759 2.61725 17.0508C2.84645 17.1232 3.08083 17.1114 3.32037 17.0156L5.47662 16.125C5.97662 16.4375 6.36725 16.6562 6.6485 16.7812L6.92975 19.125C6.95336 19.3611 7.05883 19.5603 7.24615 19.7227C7.43546 19.8867 7.65811 19.9688 7.91412 19.9688H11.6641C11.9021 19.9688 12.1189 19.8867 12.3145 19.7227C12.5141 19.5553 12.6254 19.3561 12.6485 19.125L12.9297 16.7812C13.211 16.6562 13.6016 16.4375 14.1016 16.125L16.2579 17.0156C16.4984 17.1118 16.7308 17.1235 16.9551 17.0508C17.1883 16.9752 17.3621 16.8228 17.4766 16.5938L19.3516 13.3594C19.489 13.1533 19.532 12.9247 19.4805 12.6738C19.4308 12.4315 19.3097 12.2381 19.1172 12.0938L17.2422 10.6875C17.2735 10.5312 17.2891 10.2969 17.2891 9.98438ZM9.836 13.5C8.87506 13.5 8.04889 13.1543 7.35748 12.4629C6.66608 11.7715 6.32037 10.9453 6.32037 9.98438C6.32037 9.02344 6.66608 8.19727 7.35748 7.50586C8.04889 6.81445 8.87506 6.46875 9.836 6.46875C10.7969 6.46875 11.6231 6.81445 12.3145 7.50586C13.0059 8.19727 13.3516 9.02344 13.3516 9.98438C13.3516 10.9453 13.0059 11.7715 12.3145 12.4629C11.6231 13.1543 10.7969 13.5 9.836 13.5Z" fill="#13C8EC"/>
</svg>
