<svg width="30" height="24" viewBox="0 0 30 24" fill="none" xmlns="http://www.w3.org/2000/svg">
<path d="M3 0L6 6H10.5L7.5 0H10.5L13.5 6H18L15 0H18L21 6H25.5L22.5 0H27C27.825 0 28.5312 0.29375 29.1187 0.88125C29.7062 1.46875 30 2.175 30 3V21C30 21.825 29.7062 22.5312 29.1187 23.1187C28.5312 23.7062 27.825 24 27 24H3C2.175 24 1.46875 23.7062 0.88125 23.1187C0.29375 22.5312 0 21.825 0 21V3C0 2.175 0.29375 1.46875 0.88125 0.88125C1.46875 0.29375 2.175 0 3 0V0V0M3 9V21V21V21H27V21V21V9H3V9M3 9V9V21V21V21V21V21V21V9V9" fill="white" fill-opacity="0.8"/>
</svg>
