<svg width="30" height="29" viewBox="0 0 30 29" fill="none" xmlns="http://www.w3.org/2000/svg">
<path d="M3 22.5V25.5V25.5V25.5H27V25.5V25.5V22.5H3V22.5M3 6H6.3C6.175 5.775 6.09375 5.5375 6.05625 5.2875C6.01875 5.0375 6 4.775 6 4.5C6 3.25 6.4375 2.1875 7.3125 1.3125C8.1875 0.4375 9.25 0 10.5 0C11.25 0 11.9438 0.19375 12.5813 0.58125C13.2188 0.96875 13.775 1.45 14.25 2.025L15 3L15.75 2.025C16.2 1.425 16.75 0.9375 17.4 0.5625C18.05 0.1875 18.75 0 19.5 0C20.75 0 21.8125 0.4375 22.6875 1.3125C23.5625 2.1875 24 3.25 24 4.5C24 4.775 23.9813 5.0375 23.9438 5.2875C23.9063 5.5375 23.825 5.775 23.7 6H27C27.825 6 28.5312 6.29375 29.1187 6.88125C29.7062 7.46875 30 8.175 30 9V25.5C30 26.325 29.7062 27.0312 29.1187 27.6187C28.5312 28.2062 27.825 28.5 27 28.5H3C2.175 28.5 1.46875 28.2062 0.88125 27.6187C0.29375 27.0312 0 26.325 0 25.5V9C0 8.175 0.29375 7.46875 0.88125 6.88125C1.46875 6.29375 2.175 6 3 6V6M3 18H27V9V9V9H19.35L22.5 13.275L20.1 15L15 8.1L9.9 15L7.5 13.275L10.575 9H3V9V9V18V18M10.5 6C10.925 6 11.2813 5.85625 11.5688 5.56875C11.8563 5.28125 12 4.925 12 4.5C12 4.075 11.8563 3.71875 11.5688 3.43125C11.2813 3.14375 10.925 3 10.5 3C10.075 3 9.71875 3.14375 9.43125 3.43125C9.14375 3.71875 9 4.075 9 4.5C9 4.925 9.14375 5.28125 9.43125 5.56875C9.71875 5.85625 10.075 6 10.5 6V6M19.5 6C19.925 6 20.2813 5.85625 20.5688 5.56875C20.8563 5.28125 21 4.925 21 4.5C21 4.075 20.8563 3.71875 20.5688 3.43125C20.2813 3.14375 19.925 3 19.5 3C19.075 3 18.7187 3.14375 18.4312 3.43125C18.1437 3.71875 18 4.075 18 4.5C18 4.925 18.1437 5.28125 18.4312 5.56875C18.7187 5.85625 19.075 6 19.5 6V6" fill="white" fill-opacity="0.8"/>
</svg>
