<svg width="30" height="29" viewBox="0 0 30 29" fill="none" xmlns="http://www.w3.org/2000/svg">
<path d="M3 28.5C2.175 28.5 1.46875 28.2062 0.88125 27.6187C0.29375 27.0312 0 26.325 0 25.5V9C0 8.175 0.29375 7.46875 0.88125 6.88125C1.46875 6.29375 2.175 6 3 6H9V3C9 2.175 9.29375 1.46875 9.88125 0.88125C10.4688 0.29375 11.175 0 12 0H18C18.825 0 19.5312 0.29375 20.1187 0.88125C20.7062 1.46875 21 2.175 21 3V6H27C27.825 6 28.5312 6.29375 29.1187 6.88125C29.7062 7.46875 30 8.175 30 9V25.5C30 26.325 29.7062 27.0312 29.1187 27.6187C28.5312 28.2062 27.825 28.5 27 28.5H3V28.5M12 6H18V3V3V3H12V3V3V6V6M27 19.5H19.5V22.5H10.5V19.5H3V25.5V25.5V25.5H27V25.5V25.5V19.5V19.5M13.5 19.5H16.5V16.5H13.5V19.5V19.5M3 16.5H10.5V13.5H19.5V16.5H27V9V9V9H3V9V9V16.5V16.5M15 18V18V18V18V18V18V18V18V18V18V18V18V18V18V18V18V18V18V18V18V18V18" fill="white" fill-opacity="0.8"/>
</svg>
