<svg width="9" height="10" viewBox="0 0 9 10" fill="none" xmlns="http://www.w3.org/2000/svg">
<path d="M8.25 0.75L7.5 0L6.75 0.75L6 0L5.25 0.75L4.5 0L3.75 0.75L3 0L2.25 0.75L1.5 0V6.98438H0V8.48438C0 8.76562 0.0664062 9.01953 0.199219 9.24609C0.332031 9.47266 0.511719 9.65234 0.738281 9.78516C0.964844 9.91797 1.21875 9.98438 1.5 9.98438H7.5C7.78125 9.98438 8.03516 9.91797 8.26172 9.78516C8.48828 9.65234 8.66797 9.47266 8.80078 9.24609C8.93359 9.01953 9 8.76562 9 8.48438V0L8.25 0.75V0.75M7.99219 8.48438C7.99219 8.625 7.94531 8.74609 7.85156 8.84766C7.75781 8.94922 7.64062 9 7.5 9C7.35938 9 7.24219 8.94922 7.14844 8.84766C7.05469 8.74609 7.00781 8.625 7.00781 8.48438V6.98438H2.50781V1.5H7.99219V8.48438V8.48438M3 2.48438H6V3.49219H3V2.48438V2.48438M6.49219 2.48438H7.5V3.49219H6.49219V2.48438V2.48438M3 3.98438H6V4.99219H3V3.98438V3.98438M6.49219 3.98438H7.5V4.99219H6.49219V3.98438V3.98438" fill="white" fill-opacity="0.5"/>
</svg>
